<?xml version="1.0" encoding="UTF-8" standalone="no"?>
<!DOCTYPE svg PUBLIC "-//W3C//DTD SVG 1.1//EN"
 "http://www.w3.org/Graphics/SVG/1.1/DTD/svg11.dtd">
<!-- Generated by graphviz version 2.36.0 (20140111.2315)
 -->
<!-- Title: G Pages: 1 -->
<svg width="1080pt" height="2980pt"
 viewBox="0.00 0.00 1080.00 2980.00" xmlns="http://www.w3.org/2000/svg" xmlns:xlink="http://www.w3.org/1999/xlink">
<g id="graph0" class="graph" transform="scale(1 1) rotate(0) translate(4 2976)">
<title>G</title>
<polygon fill="white" stroke="none" points="-4,4 -4,-2976 1076,-2976 1076,4 -4,4"/>
<g id="clust1" class="cluster"><title>cluster_Global</title>
<path fill="none" stroke="gray" d="M487,-854C487,-854 1052,-854 1052,-854 1058,-854 1064,-860 1064,-866 1064,-866 1064,-2952 1064,-2952 1064,-2958 1058,-2964 1052,-2964 1052,-2964 487,-2964 487,-2964 481,-2964 475,-2958 475,-2952 475,-2952 475,-866 475,-866 475,-860 481,-854 487,-854"/>
<text text-anchor="middle" x="769.5" y="-2951.2" font-family="Times,serif" font-size="11.00" fill="gray">Global</text>
</g>
<g id="clust2" class="cluster"><title>cluster_\App</title>
<path fill="none" stroke="gray" d="M495,-862C495,-862 1044,-862 1044,-862 1050,-862 1056,-868 1056,-874 1056,-874 1056,-2924 1056,-2924 1056,-2930 1050,-2936 1044,-2936 1044,-2936 495,-2936 495,-2936 489,-2936 483,-2930 483,-2924 483,-2924 483,-874 483,-874 483,-868 489,-862 495,-862"/>
<text text-anchor="middle" x="769.5" y="-2923.2" font-family="Times,serif" font-size="11.00" fill="gray">App</text>
</g>
<g id="clust3" class="cluster"><title>cluster_\App\Http</title>
<path fill="none" stroke="gray" d="M503,-2080C503,-2080 1036,-2080 1036,-2080 1042,-2080 1048,-2086 1048,-2092 1048,-2092 1048,-2896 1048,-2896 1048,-2902 1042,-2908 1036,-2908 1036,-2908 503,-2908 503,-2908 497,-2908 491,-2902 491,-2896 491,-2896 491,-2092 491,-2092 491,-2086 497,-2080 503,-2080"/>
<text text-anchor="middle" x="769.5" y="-2895.2" font-family="Times,serif" font-size="11.00" fill="gray">Http</text>
</g>
<g id="clust4" class="cluster"><title>cluster_\App\Http\Middleware</title>
<path fill="none" stroke="gray" d="M864,-2214C864,-2214 1028,-2214 1028,-2214 1034,-2214 1040,-2220 1040,-2226 1040,-2226 1040,-2490 1040,-2490 1040,-2496 1034,-2502 1028,-2502 1028,-2502 864,-2502 864,-2502 858,-2502 852,-2496 852,-2490 852,-2490 852,-2226 852,-2226 852,-2220 858,-2214 864,-2214"/>
<text text-anchor="middle" x="946" y="-2489.2" font-family="Times,serif" font-size="11.00" fill="gray">Middleware</text>
</g>
<g id="clust5" class="cluster"><title>cluster_\App\Http\Controllers</title>
<path fill="none" stroke="gray" d="M511,-2510C511,-2510 1019,-2510 1019,-2510 1025,-2510 1031,-2516 1031,-2522 1031,-2522 1031,-2868 1031,-2868 1031,-2874 1025,-2880 1019,-2880 1019,-2880 511,-2880 511,-2880 505,-2880 499,-2874 499,-2868 499,-2868 499,-2522 499,-2522 499,-2516 505,-2510 511,-2510"/>
<text text-anchor="middle" x="765" y="-2867.2" font-family="Times,serif" font-size="11.00" fill="gray">Controllers</text>
</g>
<g id="clust6" class="cluster"><title>cluster_\App\Http\Controllers\Auth</title>
<path fill="none" stroke="gray" d="M881,-2726C881,-2726 1011,-2726 1011,-2726 1017,-2726 1023,-2732 1023,-2738 1023,-2738 1023,-2840 1023,-2840 1023,-2846 1017,-2852 1011,-2852 1011,-2852 881,-2852 881,-2852 875,-2852 869,-2846 869,-2840 869,-2840 869,-2738 869,-2738 869,-2732 875,-2726 881,-2726"/>
<text text-anchor="middle" x="946" y="-2839.2" font-family="Times,serif" font-size="11.00" fill="gray">Auth</text>
</g>
<g id="clust7" class="cluster"><title>cluster_\App\Http\Requests</title>
<path fill="none" stroke="gray" d="M908,-2134C908,-2134 984,-2134 984,-2134 990,-2134 996,-2140 996,-2146 996,-2146 996,-2194 996,-2194 996,-2200 990,-2206 984,-2206 984,-2206 908,-2206 908,-2206 902,-2206 896,-2200 896,-2194 896,-2194 896,-2146 896,-2146 896,-2140 902,-2134 908,-2134"/>
<text text-anchor="middle" x="946" y="-2193.2" font-family="Times,serif" font-size="11.00" fill="gray">Requests</text>
</g>
<g id="clust8" class="cluster"><title>cluster_\App\Support</title>
<path fill="none" stroke="gray" d="M915,-1964C915,-1964 977,-1964 977,-1964 983,-1964 989,-1970 989,-1976 989,-1976 989,-2060 989,-2060 989,-2066 983,-2072 977,-2072 977,-2072 915,-2072 915,-2072 909,-2072 903,-2066 903,-2060 903,-2060 903,-1976 903,-1976 903,-1970 909,-1964 915,-1964"/>
<text text-anchor="middle" x="946" y="-2059.2" font-family="Times,serif" font-size="11.00" fill="gray">Support</text>
</g>
<g id="clust9" class="cluster"><title>cluster_\App\Support\Facades</title>
<path fill="none" stroke="gray" d="M923,-1972C923,-1972 969,-1972 969,-1972 975,-1972 981,-1978 981,-1984 981,-1984 981,-2032 981,-2032 981,-2038 975,-2044 969,-2044 969,-2044 923,-2044 923,-2044 917,-2044 911,-2038 911,-2032 911,-2032 911,-1984 911,-1984 911,-1978 917,-1972 923,-1972"/>
<text text-anchor="middle" x="946" y="-2031.2" font-family="Times,serif" font-size="11.00" fill="gray">Facades</text>
</g>
<g id="clust10" class="cluster"><title>cluster_\App\Exceptions</title>
<path fill="none" stroke="gray" d="M898,-1830C898,-1830 994,-1830 994,-1830 1000,-1830 1006,-1836 1006,-1842 1006,-1842 1006,-1944 1006,-1944 1006,-1950 1000,-1956 994,-1956 994,-1956 898,-1956 898,-1956 892,-1956 886,-1950 886,-1944 886,-1944 886,-1842 886,-1842 886,-1836 892,-1830 898,-1830"/>
<text text-anchor="middle" x="946" y="-1943.2" font-family="Times,serif" font-size="11.00" fill="gray">Exceptions</text>
</g>
<g id="clust11" class="cluster"><title>cluster_\App\Providers</title>
<path fill="none" stroke="gray" d="M874,-1534C874,-1534 1018,-1534 1018,-1534 1024,-1534 1030,-1540 1030,-1546 1030,-1546 1030,-1810 1030,-1810 1030,-1816 1024,-1822 1018,-1822 1018,-1822 874,-1822 874,-1822 868,-1822 862,-1816 862,-1810 862,-1810 862,-1546 862,-1546 862,-1540 868,-1534 874,-1534"/>
<text text-anchor="middle" x="946" y="-1809.2" font-family="Times,serif" font-size="11.00" fill="gray">Providers</text>
</g>
<g id="clust12" class="cluster"><title>cluster_\App\Console</title>
<path fill="none" stroke="gray" d="M910,-1372C910,-1372 982,-1372 982,-1372 988,-1372 994,-1378 994,-1384 994,-1384 994,-1514 994,-1514 994,-1520 988,-1526 982,-1526 982,-1526 910,-1526 910,-1526 904,-1526 898,-1520 898,-1514 898,-1514 898,-1384 898,-1384 898,-1378 904,-1372 910,-1372"/>
<text text-anchor="middle" x="946" y="-1513.2" font-family="Times,serif" font-size="11.00" fill="gray">Console</text>
</g>
<g id="clust13" class="cluster"><title>cluster_\App\Console\Commands</title>
<path fill="none" stroke="gray" d="M918,-1426C918,-1426 974,-1426 974,-1426 980,-1426 986,-1432 986,-1438 986,-1438 986,-1486 986,-1486 986,-1492 980,-1498 974,-1498 974,-1498 918,-1498 918,-1498 912,-1498 906,-1492 906,-1486 906,-1486 906,-1438 906,-1438 906,-1432 912,-1426 918,-1426"/>
<text text-anchor="middle" x="946" y="-1485.2" font-family="Times,serif" font-size="11.00" fill="gray">Commands</text>
</g>
<g id="clust14" class="cluster"><title>cluster_\App\Events</title>
<path fill="none" stroke="gray" d="M908,-1292C908,-1292 984,-1292 984,-1292 990,-1292 996,-1298 996,-1304 996,-1304 996,-1352 996,-1352 996,-1358 990,-1364 984,-1364 984,-1364 908,-1364 908,-1364 902,-1364 896,-1358 896,-1352 896,-1352 896,-1304 896,-1304 896,-1298 902,-1292 908,-1292"/>
<text text-anchor="middle" x="946" y="-1351.2" font-family="Times,serif" font-size="11.00" fill="gray">Events</text>
</g>
<g id="clust15" class="cluster"><title>cluster_\App\Jobs</title>
<path fill="none" stroke="gray" d="M908,-1212C908,-1212 984,-1212 984,-1212 990,-1212 996,-1218 996,-1224 996,-1224 996,-1272 996,-1272 996,-1278 990,-1284 984,-1284 984,-1284 908,-1284 908,-1284 902,-1284 896,-1278 896,-1272 896,-1272 896,-1224 896,-1224 896,-1218 902,-1212 908,-1212"/>
<text text-anchor="middle" x="946" y="-1271.2" font-family="Times,serif" font-size="11.00" fill="gray">Jobs</text>
</g>
<g id="clust16" class="cluster"><title>cluster_\App\Scopes</title>
<path fill="none" stroke="gray" d="M908,-1132C908,-1132 984,-1132 984,-1132 990,-1132 996,-1138 996,-1144 996,-1144 996,-1192 996,-1192 996,-1198 990,-1204 984,-1204 984,-1204 908,-1204 908,-1204 902,-1204 896,-1198 896,-1192 896,-1192 896,-1144 896,-1144 896,-1138 902,-1132 908,-1132"/>
<text text-anchor="middle" x="946" y="-1191.2" font-family="Times,serif" font-size="11.00" fill="gray">Scopes</text>
</g>
<!-- \\App\\Http\\Middleware\\SerializeCartMiddleware -->
<g id="node1" class="node"><title>\\App\\Http\\Middleware\\SerializeCartMiddleware</title>
<polygon fill="none" stroke="black" points="1032,-2474 860,-2474 860,-2438 1032,-2438 1032,-2474"/>
<text text-anchor="middle" x="946" y="-2453.2" font-family="Courier,monospace" font-size="11.00">SerializeCartMiddleware</text>
</g>
<!-- \\App\\Http\\Middleware\\Authenticate -->
<g id="node2" class="node"><title>\\App\\Http\\Middleware\\Authenticate</title>
<polygon fill="none" stroke="black" points="995,-2420 897,-2420 897,-2384 995,-2384 995,-2420"/>
<text text-anchor="middle" x="946" y="-2399.2" font-family="Courier,monospace" font-size="11.00">Authenticate</text>
</g>
<!-- \\App\\Http\\Middleware\\RedirectIfAuthenticated -->
<g id="node3" class="node"><title>\\App\\Http\\Middleware\\RedirectIfAuthenticated</title>
<polygon fill="none" stroke="black" points="1032,-2366 860,-2366 860,-2330 1032,-2330 1032,-2366"/>
<text text-anchor="middle" x="946" y="-2345.2" font-family="Courier,monospace" font-size="11.00">RedirectIfAuthenticated</text>
</g>
<!-- \\App\\Http\\Middleware\\EncryptCookies -->
<g id="node4" class="node"><title>\\App\\Http\\Middleware\\EncryptCookies</title>
<polygon fill="none" stroke="black" points="1001.5,-2312 890.5,-2312 890.5,-2276 1001.5,-2276 1001.5,-2312"/>
<text text-anchor="middle" x="946" y="-2291.2" font-family="Courier,monospace" font-size="11.00">EncryptCookies</text>
</g>
<!-- \\Illuminate\\Cookie\\Middleware\\EncryptCookies -->
<g id="node45" class="node"><title>\\Illuminate\\Cookie\\Middleware\\EncryptCookies</title>
<ellipse fill="none" stroke="black" cx="549" cy="-828" rx="181.968" ry="18"/>
<text text-anchor="middle" x="549" y="-824.3" font-family="Times,serif" font-size="14.00" fill="gray">\Illuminate\Cookie\Middleware\EncryptCookies</text>
</g>
<!-- \\App\\Http\\Middleware\\EncryptCookies&#45;&gt;\\Illuminate\\Cookie\\Middleware\\EncryptCookies -->
<g id="edge17" class="edge"><title>\\App\\Http\\Middleware\\EncryptCookies&#45;&gt;\\Illuminate\\Cookie\\Middleware\\EncryptCookies</title>
<path fill="none" stroke="black" d="M890.408,-2288.4C876.191,-2284.43 862.058,-2277.85 852,-2267 650.255,-2049.38 565.861,-1040.11 552.067,-856.649"/>
<polygon fill="none" stroke="black" points="555.541,-856.167 551.31,-846.454 548.56,-856.685 555.541,-856.167"/>
</g>
<!-- \\App\\Http\\Middleware\\VerifyCsrfToken -->
<g id="node5" class="node"><title>\\App\\Http\\Middleware\\VerifyCsrfToken</title>
<polygon fill="none" stroke="black" points="1005,-2258 887,-2258 887,-2222 1005,-2222 1005,-2258"/>
<text text-anchor="middle" x="946" y="-2237.2" font-family="Courier,monospace" font-size="11.00">VerifyCsrfToken</text>
</g>
<!-- \\Illuminate\\Foundation\\Http\\Middleware\\VerifyCsrfToken -->
<g id="node49" class="node"><title>\\Illuminate\\Foundation\\Http\\Middleware\\VerifyCsrfToken</title>
<ellipse fill="none" stroke="black" cx="549" cy="-774" rx="218.261" ry="18"/>
<text text-anchor="middle" x="549" y="-770.3" font-family="Times,serif" font-size="14.00" fill="gray">\Illuminate\Foundation\Http\Middleware\VerifyCsrfToken</text>
</g>
<!-- \\App\\Http\\Middleware\\VerifyCsrfToken&#45;&gt;\\Illuminate\\Foundation\\Http\\Middleware\\VerifyCsrfToken -->
<g id="edge22" class="edge"><title>\\App\\Http\\Middleware\\VerifyCsrfToken&#45;&gt;\\Illuminate\\Foundation\\Http\\Middleware\\VerifyCsrfToken</title>
<path fill="none" stroke="black" d="M886.696,-2232.75C873.325,-2228.28 860.545,-2221.19 852,-2210 756.899,-2085.44 895.009,-915.496 788,-801 781.979,-794.558 775.324,-788.998 768.179,-784.218"/>
<polygon fill="none" stroke="black" points="769.933,-781.189 759.576,-778.959 766.282,-787.161 769.933,-781.189"/>
</g>
<!-- \\App\\Http\\Controllers\\Auth\\PasswordController -->
<g id="node6" class="node"><title>\\App\\Http\\Controllers\\Auth\\PasswordController</title>
<polygon fill="none" stroke="black" points="1015,-2824 877,-2824 877,-2788 1015,-2788 1015,-2824"/>
<text text-anchor="middle" x="946" y="-2803.2" font-family="Courier,monospace" font-size="11.00">PasswordController</text>
</g>
<!-- \\App\\Http\\Controllers\\Controller -->
<g id="node8" class="node"><title>\\App\\Http\\Controllers\\Controller</title>
<polygon fill="none" stroke="black" points="591,-2689 507,-2689 507,-2653 591,-2653 591,-2689"/>
<text text-anchor="middle" x="549" y="-2668.2" font-family="Courier,monospace" font-size="11.00">Controller</text>
</g>
<!-- \\App\\Http\\Controllers\\Auth\\PasswordController&#45;&gt;\\App\\Http\\Controllers\\Controller -->
<g id="edge2" class="edge"><title>\\App\\Http\\Controllers\\Auth\\PasswordController&#45;&gt;\\App\\Http\\Controllers\\Controller</title>
<path fill="none" stroke="black" d="M881.058,-2787.99C871.295,-2785.08 861.357,-2782.03 852,-2779 762.925,-2750.17 660.581,-2712.62 600.824,-2690.24"/>
<polygon fill="none" stroke="black" points="601.841,-2686.89 591.249,-2686.65 599.382,-2693.44 601.841,-2686.89"/>
</g>
<!-- \\App\\Http\\Controllers\\Auth\\AuthController -->
<g id="node7" class="node"><title>\\App\\Http\\Controllers\\Auth\\AuthController</title>
<polygon fill="none" stroke="black" points="1001.5,-2770 890.5,-2770 890.5,-2734 1001.5,-2734 1001.5,-2770"/>
<text text-anchor="middle" x="946" y="-2749.2" font-family="Courier,monospace" font-size="11.00">AuthController</text>
</g>
<!-- \\App\\Http\\Controllers\\Auth\\AuthController&#45;&gt;\\App\\Http\\Controllers\\Controller -->
<g id="edge13" class="edge"><title>\\App\\Http\\Controllers\\Auth\\AuthController&#45;&gt;\\App\\Http\\Controllers\\Controller</title>
<path fill="none" stroke="black" d="M890.492,-2740.82C813.985,-2725.13 675.776,-2696.79 601.134,-2681.49"/>
<polygon fill="none" stroke="black" points="601.536,-2678 591.037,-2679.42 600.13,-2684.85 601.536,-2678"/>
</g>
<!-- \\Illuminate\\Routing\\Controller -->
<g id="node43" class="node"><title>\\Illuminate\\Routing\\Controller</title>
<ellipse fill="none" stroke="black" cx="119" cy="-2671" rx="118.879" ry="18"/>
<text text-anchor="middle" x="119" y="-2667.3" font-family="Times,serif" font-size="14.00" fill="gray">\Illuminate\Routing\Controller</text>
</g>
<!-- \\App\\Http\\Controllers\\Controller&#45;&gt;\\Illuminate\\Routing\\Controller -->
<g id="edge14" class="edge"><title>\\App\\Http\\Controllers\\Controller&#45;&gt;\\Illuminate\\Routing\\Controller</title>
<path fill="none" stroke="black" d="M506.962,-2671C447.933,-2671 336.463,-2671 248.268,-2671"/>
<polygon fill="none" stroke="black" points="248.179,-2667.5 238.179,-2671 248.179,-2674.5 248.179,-2667.5"/>
</g>
<!-- \\App\\Http\\Controllers\\CartController -->
<g id="node9" class="node"><title>\\App\\Http\\Controllers\\CartController</title>
<polygon fill="none" stroke="black" points="1001.5,-2716 890.5,-2716 890.5,-2680 1001.5,-2680 1001.5,-2716"/>
<text text-anchor="middle" x="946" y="-2695.2" font-family="Courier,monospace" font-size="11.00">CartController</text>
</g>
<!-- \\App\\Http\\Controllers\\CartController&#45;&gt;\\App\\Http\\Controllers\\Controller -->
<g id="edge15" class="edge"><title>\\App\\Http\\Controllers\\CartController&#45;&gt;\\App\\Http\\Controllers\\Controller</title>
<path fill="none" stroke="black" d="M890.492,-2694.27C813.985,-2689.04 675.776,-2679.6 601.134,-2674.5"/>
<polygon fill="none" stroke="black" points="601.252,-2671 591.037,-2673.81 600.775,-2677.98 601.252,-2671"/>
</g>
<!-- \\App\\Http\\Controllers\\ProductController -->
<g id="node10" class="node"><title>\\App\\Http\\Controllers\\ProductController</title>
<polygon fill="none" stroke="black" points="1011.5,-2662 880.5,-2662 880.5,-2626 1011.5,-2626 1011.5,-2662"/>
<text text-anchor="middle" x="946" y="-2641.2" font-family="Courier,monospace" font-size="11.00">ProductController</text>
</g>
<!-- \\App\\Http\\Controllers\\ProductController&#45;&gt;\\App\\Http\\Controllers\\Controller -->
<g id="edge19" class="edge"><title>\\App\\Http\\Controllers\\ProductController&#45;&gt;\\App\\Http\\Controllers\\Controller</title>
<path fill="none" stroke="black" d="M880.216,-2648.43C802.196,-2653.76 672.749,-2662.61 601.303,-2667.49"/>
<polygon fill="none" stroke="black" points="600.934,-2664.01 591.196,-2668.18 601.412,-2670.99 600.934,-2664.01"/>
</g>
<!-- \\App\\Http\\Controllers\\OrderController -->
<g id="node11" class="node"><title>\\App\\Http\\Controllers\\OrderController</title>
<polygon fill="none" stroke="black" points="1005,-2608 887,-2608 887,-2572 1005,-2572 1005,-2608"/>
<text text-anchor="middle" x="946" y="-2587.2" font-family="Courier,monospace" font-size="11.00">OrderController</text>
</g>
<!-- \\App\\Http\\Controllers\\OrderController&#45;&gt;\\App\\Http\\Controllers\\Controller -->
<g id="edge23" class="edge"><title>\\App\\Http\\Controllers\\OrderController&#45;&gt;\\App\\Http\\Controllers\\Controller</title>
<path fill="none" stroke="black" d="M886.716,-2601.95C809.446,-2617.8 674.33,-2645.5 600.943,-2660.55"/>
<polygon fill="none" stroke="black" points="600.102,-2657.15 591.009,-2662.59 601.509,-2664.01 600.102,-2657.15"/>
</g>
<!-- \\App\\Http\\Controllers\\HomeController -->
<g id="node12" class="node"><title>\\App\\Http\\Controllers\\HomeController</title>
<polygon fill="none" stroke="black" points="1001.5,-2554 890.5,-2554 890.5,-2518 1001.5,-2518 1001.5,-2554"/>
<text text-anchor="middle" x="946" y="-2533.2" font-family="Courier,monospace" font-size="11.00">HomeController</text>
</g>
<!-- \\App\\Http\\Controllers\\HomeController&#45;&gt;\\App\\Http\\Controllers\\Controller -->
<g id="edge24" class="edge"><title>\\App\\Http\\Controllers\\HomeController&#45;&gt;\\App\\Http\\Controllers\\Controller</title>
<path fill="none" stroke="black" d="M890.245,-2551.29C877.638,-2554.98 864.317,-2559.01 852,-2563 762.925,-2591.83 660.581,-2629.38 600.824,-2651.76"/>
<polygon fill="none" stroke="black" points="599.382,-2648.56 591.249,-2655.35 601.841,-2655.11 599.382,-2648.56"/>
</g>
<!-- \\App\\Http\\Requests\\Request -->
<g id="node13" class="node"><title>\\App\\Http\\Requests\\Request</title>
<polygon fill="none" stroke="black" points="988,-2178 904,-2178 904,-2142 988,-2142 988,-2178"/>
<text text-anchor="start" x="912" y="-2163.2" font-family="Courier,monospace" font-size="11.00">«abstract»</text>
<text text-anchor="start" x="922" y="-2151.2" font-family="Courier,monospace" font-size="11.00">Request</text>
</g>
<!-- \\Illuminate\\Foundation\\Http\\FormRequest -->
<g id="node40" class="node"><title>\\Illuminate\\Foundation\\Http\\FormRequest</title>
<ellipse fill="none" stroke="black" cx="549" cy="-720" rx="160.572" ry="18"/>
<text text-anchor="middle" x="549" y="-716.3" font-family="Times,serif" font-size="14.00" fill="gray">\Illuminate\Foundation\Http\FormRequest</text>
</g>
<!-- \\App\\Http\\Requests\\Request&#45;&gt;\\Illuminate\\Foundation\\Http\\FormRequest -->
<g id="edge9" class="edge"><title>\\App\\Http\\Requests\\Request&#45;&gt;\\Illuminate\\Foundation\\Http\\FormRequest</title>
<path fill="none" stroke="black" d="M903.955,-2160.85C885.231,-2158.92 864.496,-2153.07 852,-2138 753.248,-2018.89 893.678,-860.005 788,-747 752.459,-708.995 694.801,-701.692 645.138,-704.157"/>
<polygon fill="none" stroke="black" points="644.756,-700.674 634.997,-704.799 645.198,-707.66 644.756,-700.674"/>
</g>
<!-- \\App\\Http\\Kernel -->
<g id="node14" class="node"><title>\\App\\Http\\Kernel</title>
<polygon fill="none" stroke="black" points="974.5,-2124 917.5,-2124 917.5,-2088 974.5,-2088 974.5,-2124"/>
<text text-anchor="middle" x="946" y="-2103.2" font-family="Courier,monospace" font-size="11.00">Kernel</text>
</g>
<!-- \\Illuminate\\Foundation\\Http\\Kernel -->
<g id="node44" class="node"><title>\\Illuminate\\Foundation\\Http\\Kernel</title>
<ellipse fill="none" stroke="black" cx="549" cy="-666" rx="136.476" ry="18"/>
<text text-anchor="middle" x="549" y="-662.3" font-family="Times,serif" font-size="14.00" fill="gray">\Illuminate\Foundation\Http\Kernel</text>
</g>
<!-- \\App\\Http\\Kernel&#45;&gt;\\Illuminate\\Foundation\\Http\\Kernel -->
<g id="edge16" class="edge"><title>\\App\\Http\\Kernel&#45;&gt;\\Illuminate\\Foundation\\Http\\Kernel</title>
<path fill="none" stroke="black" d="M917.355,-2096.89C895.49,-2088.1 866.337,-2072.46 852,-2048 775.781,-1917.97 891.016,-803.024 788,-693 750.896,-653.372 689.743,-647.139 638.717,-650.547"/>
<polygon fill="none" stroke="black" points="638.347,-647.065 628.657,-651.35 638.904,-654.043 638.347,-647.065"/>
</g>
<!-- \\App\\Support\\Facades\\Cart -->
<g id="node15" class="node"><title>\\App\\Support\\Facades\\Cart</title>
<polygon fill="none" stroke="black" points="973,-2016 919,-2016 919,-1980 973,-1980 973,-2016"/>
<text text-anchor="middle" x="946" y="-1995.2" font-family="Courier,monospace" font-size="11.00">Cart</text>
</g>
<!-- \\Illuminate\\Support\\Facades\\Facade -->
<g id="node33" class="node"><title>\\Illuminate\\Support\\Facades\\Facade</title>
<ellipse fill="none" stroke="black" cx="549" cy="-612" rx="137.576" ry="18"/>
<text text-anchor="middle" x="549" y="-608.3" font-family="Times,serif" font-size="14.00" fill="gray">\Illuminate\Support\Facades\Facade</text>
</g>
<!-- \\App\\Support\\Facades\\Cart&#45;&gt;\\Illuminate\\Support\\Facades\\Facade -->
<g id="edge1" class="edge"><title>\\App\\Support\\Facades\\Cart&#45;&gt;\\Illuminate\\Support\\Facades\\Facade</title>
<path fill="none" stroke="black" d="M918.574,-1994.92C896.833,-1990.86 867.209,-1981.5 852,-1960 767.138,-1840.03 888.502,-746.208 788,-639 751.005,-599.537 690.158,-593.206 639.25,-596.527"/>
<polygon fill="none" stroke="black" points="638.907,-593.043 629.211,-597.313 639.453,-600.022 638.907,-593.043"/>
</g>
<!-- \\App\\Exceptions\\Handler -->
<g id="node16" class="node"><title>\\App\\Exceptions\\Handler</title>
<polygon fill="none" stroke="black" points="978,-1928 914,-1928 914,-1892 978,-1892 978,-1928"/>
<text text-anchor="middle" x="946" y="-1907.2" font-family="Courier,monospace" font-size="11.00">Handler</text>
</g>
<!-- \\Illuminate\\Foundation\\Exceptions\\Handler -->
<g id="node34" class="node"><title>\\Illuminate\\Foundation\\Exceptions\\Handler</title>
<ellipse fill="none" stroke="black" cx="549" cy="-558" rx="164.371" ry="18"/>
<text text-anchor="middle" x="549" y="-554.3" font-family="Times,serif" font-size="14.00" fill="gray">\Illuminate\Foundation\Exceptions\Handler</text>
</g>
<!-- \\App\\Exceptions\\Handler&#45;&gt;\\Illuminate\\Foundation\\Exceptions\\Handler -->
<g id="edge3" class="edge"><title>\\App\\Exceptions\\Handler&#45;&gt;\\Illuminate\\Foundation\\Exceptions\\Handler</title>
<path fill="none" stroke="black" d="M913.559,-1909.73C892.662,-1907.72 866.489,-1901.34 852,-1883 762.472,-1769.71 886.801,-690.304 788,-585 752.729,-547.408 695.813,-539.891 646.483,-542.137"/>
<polygon fill="none" stroke="black" points="646.18,-538.649 636.405,-542.734 646.594,-545.636 646.18,-538.649"/>
</g>
<!-- \\App\\Exceptions\\CartException -->
<g id="node17" class="node"><title>\\App\\Exceptions\\CartException</title>
<polygon fill="none" stroke="black" points="998,-1874 894,-1874 894,-1838 998,-1838 998,-1874"/>
<text text-anchor="middle" x="946" y="-1853.2" font-family="Courier,monospace" font-size="11.00">CartException</text>
</g>
<!-- \\Exception -->
<g id="node42" class="node"><title>\\Exception</title>
<ellipse fill="none" stroke="black" cx="549" cy="-504" rx="48.9926" ry="18"/>
<text text-anchor="middle" x="549" y="-500.3" font-family="Times,serif" font-size="14.00" fill="gray">\Exception</text>
</g>
<!-- \\App\\Exceptions\\CartException&#45;&gt;\\Exception -->
<g id="edge11" class="edge"><title>\\App\\Exceptions\\CartException&#45;&gt;\\Exception</title>
<path fill="none" stroke="black" d="M893.525,-1850.77C877.789,-1846.53 862.012,-1839.06 852,-1826 764.348,-1711.67 886.58,-636.055 788,-531 741.085,-481.003 655.881,-484.207 601.167,-492.823"/>
<polygon fill="none" stroke="black" points="600.263,-489.426 590.986,-494.543 601.43,-496.328 600.263,-489.426"/>
</g>
<!-- \\App\\Providers\\AuthServiceProvider -->
<g id="node18" class="node"><title>\\App\\Providers\\AuthServiceProvider</title>
<polygon fill="none" stroke="black" points="1018.5,-1794 873.5,-1794 873.5,-1758 1018.5,-1758 1018.5,-1794"/>
<text text-anchor="middle" x="946" y="-1773.2" font-family="Courier,monospace" font-size="11.00">AuthServiceProvider</text>
</g>
<!-- \\Illuminate\\Foundation\\Support\\Providers\\AuthServiceProvider -->
<g id="node35" class="node"><title>\\Illuminate\\Foundation\\Support\\Providers\\AuthServiceProvider</title>
<ellipse fill="none" stroke="black" cx="549" cy="-450" rx="235.058" ry="18"/>
<text text-anchor="middle" x="549" y="-446.3" font-family="Times,serif" font-size="14.00" fill="gray">\Illuminate\Foundation\Support\Providers\AuthServiceProvider</text>
</g>
<!-- \\App\\Providers\\AuthServiceProvider&#45;&gt;\\Illuminate\\Foundation\\Support\\Providers\\AuthServiceProvider -->
<g id="edge4" class="edge"><title>\\App\\Providers\\AuthServiceProvider&#45;&gt;\\Illuminate\\Foundation\\Support\\Providers\\AuthServiceProvider</title>
<path fill="none" stroke="black" d="M873.189,-1765.4C865.027,-1761.44 857.632,-1756.12 852,-1749 764.205,-1638.01 884.879,-580.151 788,-477 783.123,-471.807 777.832,-467.188 772.205,-463.089"/>
<polygon fill="none" stroke="black" points="773.995,-460.076 763.73,-457.451 770.117,-465.904 773.995,-460.076"/>
</g>
<!-- \\App\\Providers\\AppServiceProvider -->
<g id="node19" class="node"><title>\\App\\Providers\\AppServiceProvider</title>
<polygon fill="none" stroke="black" points="1015,-1740 877,-1740 877,-1704 1015,-1704 1015,-1740"/>
<text text-anchor="middle" x="946" y="-1719.2" font-family="Courier,monospace" font-size="11.00">AppServiceProvider</text>
</g>
<!-- \\Illuminate\\Support\\ServiceProvider -->
<g id="node38" class="node"><title>\\Illuminate\\Support\\ServiceProvider</title>
<ellipse fill="none" stroke="black" cx="549" cy="-396" rx="139.175" ry="18"/>
<text text-anchor="middle" x="549" y="-392.3" font-family="Times,serif" font-size="14.00" fill="gray">\Illuminate\Support\ServiceProvider</text>
</g>
<!-- \\App\\Providers\\AppServiceProvider&#45;&gt;\\Illuminate\\Support\\ServiceProvider -->
<g id="edge7" class="edge"><title>\\App\\Providers\\AppServiceProvider&#45;&gt;\\Illuminate\\Support\\ServiceProvider</title>
<path fill="none" stroke="black" d="M876.864,-1713.07C867.256,-1708.97 858.467,-1703.18 852,-1695 764.205,-1584.01 884.879,-526.151 788,-423 751.035,-383.642 690.341,-377.263 639.498,-380.534"/>
<polygon fill="none" stroke="black" points="639.171,-377.049 629.471,-381.31 639.711,-384.028 639.171,-377.049"/>
</g>
<!-- \\App\\Providers\\CartServiceProvider -->
<g id="node20" class="node"><title>\\App\\Providers\\CartServiceProvider</title>
<polygon fill="none" stroke="black" points="1018.5,-1686 873.5,-1686 873.5,-1650 1018.5,-1650 1018.5,-1686"/>
<text text-anchor="middle" x="946" y="-1665.2" font-family="Courier,monospace" font-size="11.00">CartServiceProvider</text>
</g>
<!-- \\App\\Providers\\CartServiceProvider&#45;&gt;\\Illuminate\\Support\\ServiceProvider -->
<g id="edge12" class="edge"><title>\\App\\Providers\\CartServiceProvider&#45;&gt;\\Illuminate\\Support\\ServiceProvider</title>
<path fill="none" stroke="black" d="M873.204,-1657.39C865.039,-1653.43 857.64,-1648.11 852,-1641 767.805,-1534.81 880.887,-521.68 788,-423 751.058,-383.754 690.517,-377.327 639.742,-380.547"/>
<polygon fill="none" stroke="black" points="639.431,-377.06 629.727,-381.312 639.965,-384.04 639.431,-377.06"/>
</g>
<!-- \\App\\Providers\\RouteServiceProvider -->
<g id="node21" class="node"><title>\\App\\Providers\\RouteServiceProvider</title>
<polygon fill="none" stroke="black" points="1022,-1632 870,-1632 870,-1596 1022,-1596 1022,-1632"/>
<text text-anchor="middle" x="946" y="-1611.2" font-family="Courier,monospace" font-size="11.00">RouteServiceProvider</text>
</g>
<!-- \\Illuminate\\Foundation\\Support\\Providers\\RouteServiceProvider -->
<g id="node46" class="node"><title>\\Illuminate\\Foundation\\Support\\Providers\\RouteServiceProvider</title>
<ellipse fill="none" stroke="black" cx="549" cy="-342" rx="238.558" ry="18"/>
<text text-anchor="middle" x="549" y="-338.3" font-family="Times,serif" font-size="14.00" fill="gray">\Illuminate\Foundation\Support\Providers\RouteServiceProvider</text>
</g>
<!-- \\App\\Providers\\RouteServiceProvider&#45;&gt;\\Illuminate\\Foundation\\Support\\Providers\\RouteServiceProvider -->
<g id="edge18" class="edge"><title>\\App\\Providers\\RouteServiceProvider&#45;&gt;\\Illuminate\\Foundation\\Support\\Providers\\RouteServiceProvider</title>
<path fill="none" stroke="black" d="M869.629,-1601.54C862.886,-1597.81 856.805,-1593.06 852,-1587 767.805,-1480.81 880.887,-467.68 788,-369 783.324,-364.032 778.27,-359.59 772.905,-355.627"/>
<polygon fill="none" stroke="black" points="774.479,-352.467 764.229,-349.787 770.57,-358.274 774.479,-352.467"/>
</g>
<!-- \\App\\Providers\\EventServiceProvider -->
<g id="node22" class="node"><title>\\App\\Providers\\EventServiceProvider</title>
<polygon fill="none" stroke="black" points="1022,-1578 870,-1578 870,-1542 1022,-1542 1022,-1578"/>
<text text-anchor="middle" x="946" y="-1557.2" font-family="Courier,monospace" font-size="11.00">EventServiceProvider</text>
</g>
<!-- \\Illuminate\\Foundation\\Support\\Providers\\EventServiceProvider -->
<g id="node48" class="node"><title>\\Illuminate\\Foundation\\Support\\Providers\\EventServiceProvider</title>
<ellipse fill="none" stroke="black" cx="549" cy="-288" rx="237.758" ry="18"/>
<text text-anchor="middle" x="549" y="-284.3" font-family="Times,serif" font-size="14.00" fill="gray">\Illuminate\Foundation\Support\Providers\EventServiceProvider</text>
</g>
<!-- \\App\\Providers\\EventServiceProvider&#45;&gt;\\Illuminate\\Foundation\\Support\\Providers\\EventServiceProvider -->
<g id="edge21" class="edge"><title>\\App\\Providers\\EventServiceProvider&#45;&gt;\\Illuminate\\Foundation\\Support\\Providers\\EventServiceProvider</title>
<path fill="none" stroke="black" d="M897.682,-1541.74C880.3,-1532.54 862.355,-1519.53 852,-1502 784.829,-1388.28 878.595,-411.114 788,-315 783.32,-310.035 778.263,-305.596 772.896,-301.635"/>
<polygon fill="none" stroke="black" points="774.467,-298.475 764.216,-295.799 770.561,-304.283 774.467,-298.475"/>
</g>
<!-- \\App\\Console\\Commands\\Inspire -->
<g id="node23" class="node"><title>\\App\\Console\\Commands\\Inspire</title>
<polygon fill="none" stroke="black" points="978,-1470 914,-1470 914,-1434 978,-1434 978,-1470"/>
<text text-anchor="middle" x="946" y="-1449.2" font-family="Courier,monospace" font-size="11.00">Inspire</text>
</g>
<!-- \\Illuminate\\Console\\Command -->
<g id="node39" class="node"><title>\\Illuminate\\Console\\Command</title>
<ellipse fill="none" stroke="black" cx="549" cy="-234" rx="120.779" ry="18"/>
<text text-anchor="middle" x="549" y="-230.3" font-family="Times,serif" font-size="14.00" fill="gray">\Illuminate\Console\Command</text>
</g>
<!-- \\App\\Console\\Commands\\Inspire&#45;&gt;\\Illuminate\\Console\\Command -->
<g id="edge8" class="edge"><title>\\App\\Console\\Commands\\Inspire&#45;&gt;\\Illuminate\\Console\\Command</title>
<path fill="none" stroke="black" d="M913.752,-1453.5C892.943,-1452.66 866.797,-1447.69 852,-1430 685.073,-1230.44 966.529,-450.247 788,-261 749.678,-220.377 686.065,-214.945 634.242,-218.961"/>
<polygon fill="none" stroke="black" points="633.69,-215.497 624.046,-219.883 634.321,-222.468 633.69,-215.497"/>
</g>
<!-- \\App\\Console\\Kernel -->
<g id="node24" class="node"><title>\\App\\Console\\Kernel</title>
<polygon fill="none" stroke="black" points="974.5,-1416 917.5,-1416 917.5,-1380 974.5,-1380 974.5,-1416"/>
<text text-anchor="middle" x="946" y="-1395.2" font-family="Courier,monospace" font-size="11.00">Kernel</text>
</g>
<!-- \\Illuminate\\Foundation\\Console\\Kernel -->
<g id="node36" class="node"><title>\\Illuminate\\Foundation\\Console\\Kernel</title>
<ellipse fill="none" stroke="black" cx="549" cy="-180" rx="149.473" ry="18"/>
<text text-anchor="middle" x="549" y="-176.3" font-family="Times,serif" font-size="14.00" fill="gray">\Illuminate\Foundation\Console\Kernel</text>
</g>
<!-- \\App\\Console\\Kernel&#45;&gt;\\Illuminate\\Foundation\\Console\\Kernel -->
<g id="edge5" class="edge"><title>\\App\\Console\\Kernel&#45;&gt;\\Illuminate\\Foundation\\Console\\Kernel</title>
<path fill="none" stroke="black" d="M917.497,-1397.1C896.02,-1394.8 867.333,-1387.88 852,-1368 694.207,-1163.38 965.346,-394.922 788,-207 751.819,-168.661 693.112,-161.672 643.059,-164.384"/>
<polygon fill="none" stroke="black" points="642.588,-160.908 632.847,-165.076 643.061,-167.892 642.588,-160.908"/>
</g>
<!-- \\App\\Events\\Event -->
<g id="node25" class="node"><title>\\App\\Events\\Event</title>
<polygon fill="none" stroke="black" points="988,-1336 904,-1336 904,-1300 988,-1300 988,-1336"/>
<text text-anchor="start" x="912" y="-1321.2" font-family="Courier,monospace" font-size="11.00">«abstract»</text>
<text text-anchor="start" x="929" y="-1309.2" font-family="Courier,monospace" font-size="11.00">Event</text>
</g>
<!-- \\App\\Jobs\\Job -->
<g id="node26" class="node"><title>\\App\\Jobs\\Job</title>
<polygon fill="none" stroke="black" points="988,-1256 904,-1256 904,-1220 988,-1220 988,-1256"/>
<text text-anchor="start" x="912" y="-1241.2" font-family="Courier,monospace" font-size="11.00">«abstract»</text>
<text text-anchor="start" x="935.5" y="-1229.2" font-family="Courier,monospace" font-size="11.00">Job</text>
</g>
<!-- \\App\\Scopes\\OwnerScope -->
<g id="node27" class="node"><title>\\App\\Scopes\\OwnerScope</title>
<polygon fill="none" stroke="black" points="988,-1176 904,-1176 904,-1140 988,-1140 988,-1176"/>
<text text-anchor="middle" x="946" y="-1155.2" font-family="Courier,monospace" font-size="11.00">OwnerScope</text>
</g>
<!-- \\Illuminate\\Database\\Eloquent\\Scope -->
<g id="node47" class="node"><title>\\Illuminate\\Database\\Eloquent\\Scope</title>
<ellipse fill="none" stroke="black" cx="549" cy="-126" rx="142.175" ry="18"/>
<text text-anchor="middle" x="549" y="-122.3" font-family="Times,serif" font-size="14.00" fill="gray">\Illuminate\Database\Eloquent\Scope</text>
</g>
<!-- \\App\\Scopes\\OwnerScope&#45;&gt;\\Illuminate\\Database\\Eloquent\\Scope -->
<g id="edge20" class="edge"><title>\\App\\Scopes\\OwnerScope&#45;&gt;\\Illuminate\\Database\\Eloquent\\Scope</title>
<path fill="none" stroke="black" stroke-dasharray="1,5" d="M903.604,-1158.7C885.034,-1156.69 864.532,-1150.83 852,-1136 710.682,-968.819 939.036,-311.457 788,-153 751.361,-114.56 692.052,-107.752 641.808,-110.583"/>
<polygon fill="none" stroke="black" points="641.295,-107.11 631.563,-111.298 641.782,-114.093 641.295,-107.11"/>
</g>
<!-- \\App\\CartItem -->
<g id="node28" class="node"><title>\\App\\CartItem</title>
<polygon fill="none" stroke="black" points="981.5,-1122 910.5,-1122 910.5,-1086 981.5,-1086 981.5,-1122"/>
<text text-anchor="middle" x="946" y="-1101.2" font-family="Courier,monospace" font-size="11.00">CartItem</text>
</g>
<!-- \\App\\User -->
<g id="node29" class="node"><title>\\App\\User</title>
<polygon fill="none" stroke="black" points="973,-1068 919,-1068 919,-1032 973,-1032 973,-1068"/>
<text text-anchor="middle" x="946" y="-1047.2" font-family="Courier,monospace" font-size="11.00">User</text>
</g>
<!-- \\Illuminate\\Foundation\\Auth\\User -->
<g id="node37" class="node"><title>\\Illuminate\\Foundation\\Auth\\User</title>
<ellipse fill="none" stroke="black" cx="549" cy="-72" rx="131.077" ry="18"/>
<text text-anchor="middle" x="549" y="-68.3" font-family="Times,serif" font-size="14.00" fill="gray">\Illuminate\Foundation\Auth\User</text>
</g>
<!-- \\App\\User&#45;&gt;\\Illuminate\\Foundation\\Auth\\User -->
<g id="edge6" class="edge"><title>\\App\\User&#45;&gt;\\Illuminate\\Foundation\\Auth\\User</title>
<path fill="none" stroke="black" d="M918.942,-1050.07C897.43,-1048.6 867.937,-1042.76 852,-1023 722.787,-862.787 930.318,-247.693 788,-99 750.463,-59.7816 689.319,-53.5406 638.405,-56.8422"/>
<polygon fill="none" stroke="black" points="638.068,-53.3578 628.369,-57.6228 638.61,-60.3367 638.068,-53.3578"/>
</g>
<!-- \\App\\Product -->
<g id="node30" class="node"><title>\\App\\Product</title>
<polygon fill="none" stroke="black" points="978,-1014 914,-1014 914,-978 978,-978 978,-1014"/>
<text text-anchor="middle" x="946" y="-993.2" font-family="Courier,monospace" font-size="11.00">Product</text>
</g>
<!-- \\Illuminate\\Database\\Eloquent\\Model -->
<g id="node41" class="node"><title>\\Illuminate\\Database\\Eloquent\\Model</title>
<ellipse fill="none" stroke="black" cx="549" cy="-18" rx="144.075" ry="18"/>
<text text-anchor="middle" x="549" y="-14.3" font-family="Times,serif" font-size="14.00" fill="gray">\Illuminate\Database\Eloquent\Model</text>
</g>
<!-- \\App\\Product&#45;&gt;\\Illuminate\\Database\\Eloquent\\Model -->
<g id="edge10" class="edge"><title>\\App\\Product&#45;&gt;\\Illuminate\\Database\\Eloquent\\Model</title>
<path fill="none" stroke="black" d="M913.673,-995.635C892.828,-993.587 866.671,-987.191 852,-969 722.787,-808.787 930.318,-193.693 788,-45 751.483,-6.84695 692.623,0.0959687 642.577,-2.5947"/>
<polygon fill="none" stroke="black" points="642.111,0.882009 632.369,-3.28093 642.581,-6.10223 642.111,0.882009"/>
</g>
<!-- \\App\\Cart -->
<g id="node31" class="node"><title>\\App\\Cart</title>
<polygon fill="none" stroke="black" points="973,-960 919,-960 919,-924 973,-924 973,-960"/>
<text text-anchor="middle" x="946" y="-939.2" font-family="Courier,monospace" font-size="11.00">Cart</text>
</g>
<!-- \\App\\Order -->
<g id="node32" class="node"><title>\\App\\Order</title>
<polygon fill="none" stroke="black" points="973,-906 919,-906 919,-870 973,-870 973,-906"/>
<text text-anchor="middle" x="946" y="-885.2" font-family="Courier,monospace" font-size="11.00">Order</text>
</g>
<!-- \\App\\Order&#45;&gt;\\Illuminate\\Database\\Eloquent\\Model -->
<g id="edge25" class="edge"><title>\\App\\Order&#45;&gt;\\Illuminate\\Database\\Eloquent\\Model</title>
<path fill="none" stroke="black" d="M944.439,-869.905C940.581,-758.128 914.241,-162.562 788,-45 752.206,-11.6667 699.062,-3.26385 652.068,-3.91935"/>
<polygon fill="none" stroke="black" points="651.73,-0.427274 641.832,-4.20368 651.925,-7.42458 651.73,-0.427274"/>
</g>
</g>
</svg>
